<mxfile host="app.diagrams.net" agent="Mozilla/5.0 (Macintosh; Intel Mac OS X 10_15_7) AppleWebKit/605.1.15 (KHTML, like Gecko) Version/18.5 Safari/605.1.15" version="27.2.0">
  <diagram name="Página-1" id="LCYeYG4lNAdlEPeiNFRU">
    <mxGraphModel dx="2583" dy="1393" grid="1" gridSize="10" guides="1" tooltips="1" connect="1" arrows="1" fold="1" page="1" pageScale="1" pageWidth="827" pageHeight="1169" math="0" shadow="0">
      <root>
        <mxCell id="0" />
        <mxCell id="1" parent="0" />
        <mxCell id="2yyvgfeFI3VEinEZ0zGj-1" value="Início" style="rounded=1;whiteSpace=wrap;arcSize=50;strokeWidth=2;" vertex="1" parent="1">
          <mxGeometry x="200" y="20" width="64" height="39" as="geometry" />
        </mxCell>
        <mxCell id="2yyvgfeFI3VEinEZ0zGj-2" value="Cliente autenticado?" style="rhombus;strokeWidth=2;whiteSpace=wrap;" vertex="1" parent="1">
          <mxGeometry x="131" y="109" width="202" height="202" as="geometry" />
        </mxCell>
        <mxCell id="2yyvgfeFI3VEinEZ0zGj-3" value="Retorna 403 Forbidden" style="strokeWidth=2;shape=process;whiteSpace=wrap;size=0.04;" vertex="1" parent="1">
          <mxGeometry x="20" y="383" width="193" height="39" as="geometry" />
        </mxCell>
        <mxCell id="2yyvgfeFI3VEinEZ0zGj-4" value="Seleciona Produtos" style="strokeWidth=2;shape=process;whiteSpace=wrap;size=0.04;" vertex="1" parent="1">
          <mxGeometry x="263" y="383" width="166" height="39" as="geometry" />
        </mxCell>
        <mxCell id="2yyvgfeFI3VEinEZ0zGj-5" value="Seleciona Método de Pagamento" style="strokeWidth=2;shape=process;whiteSpace=wrap;size=0.04;" vertex="1" parent="1">
          <mxGeometry x="231" y="472" width="231" height="63" as="geometry" />
        </mxCell>
        <mxCell id="2yyvgfeFI3VEinEZ0zGj-6" value="Confirma Pedido" style="strokeWidth=2;shape=process;whiteSpace=wrap;size=0.04;" vertex="1" parent="1">
          <mxGeometry x="272" y="585" width="149" height="39" as="geometry" />
        </mxCell>
        <mxCell id="2yyvgfeFI3VEinEZ0zGj-7" value="POST /orders/" style="strokeWidth=2;shape=process;whiteSpace=wrap;size=0.04;" vertex="1" parent="1">
          <mxGeometry x="279" y="674" width="134" height="39" as="geometry" />
        </mxCell>
        <mxCell id="2yyvgfeFI3VEinEZ0zGj-8" value="Método de pagamento válido?" style="rhombus;strokeWidth=2;whiteSpace=wrap;" vertex="1" parent="1">
          <mxGeometry x="207" y="763" width="278" height="278" as="geometry" />
        </mxCell>
        <mxCell id="2yyvgfeFI3VEinEZ0zGj-9" value="Erro: Método inválido" style="strokeWidth=2;shape=process;whiteSpace=wrap;size=0.04;" vertex="1" parent="1">
          <mxGeometry x="139" y="1114" width="185" height="39" as="geometry" />
        </mxCell>
        <mxCell id="2yyvgfeFI3VEinEZ0zGj-10" value="Salva Pedido e Itens" style="strokeWidth=2;shape=process;whiteSpace=wrap;size=0.04;" vertex="1" parent="1">
          <mxGeometry x="374" y="1114" width="174" height="39" as="geometry" />
        </mxCell>
        <mxCell id="2yyvgfeFI3VEinEZ0zGj-11" value="Retorna JSON do Pedido Criado" style="strokeWidth=2;shape=process;whiteSpace=wrap;size=0.04;" vertex="1" parent="1">
          <mxGeometry x="346" y="1203" width="231" height="63" as="geometry" />
        </mxCell>
        <mxCell id="2yyvgfeFI3VEinEZ0zGj-12" value="Fim" style="rounded=1;whiteSpace=wrap;arcSize=50;strokeWidth=2;" vertex="1" parent="1">
          <mxGeometry x="436" y="1316" width="51" height="39" as="geometry" />
        </mxCell>
        <mxCell id="2yyvgfeFI3VEinEZ0zGj-13" value="" style="curved=1;startArrow=none;endArrow=block;exitX=0.49;exitY=1;entryX=0.5;entryY=0;rounded=0;" edge="1" parent="1" source="2yyvgfeFI3VEinEZ0zGj-1" target="2yyvgfeFI3VEinEZ0zGj-2">
          <mxGeometry relative="1" as="geometry">
            <Array as="points" />
          </mxGeometry>
        </mxCell>
        <mxCell id="2yyvgfeFI3VEinEZ0zGj-14" value="Não" style="curved=1;startArrow=none;endArrow=block;exitX=0.08;exitY=1;entryX=0.5;entryY=0.01;rounded=0;" edge="1" parent="1" source="2yyvgfeFI3VEinEZ0zGj-2" target="2yyvgfeFI3VEinEZ0zGj-3">
          <mxGeometry relative="1" as="geometry">
            <Array as="points">
              <mxPoint x="117" y="347" />
            </Array>
          </mxGeometry>
        </mxCell>
        <mxCell id="2yyvgfeFI3VEinEZ0zGj-15" value="Sim" style="curved=1;startArrow=none;endArrow=block;exitX=0.92;exitY=1;entryX=0.5;entryY=0.01;rounded=0;" edge="1" parent="1" source="2yyvgfeFI3VEinEZ0zGj-2" target="2yyvgfeFI3VEinEZ0zGj-4">
          <mxGeometry relative="1" as="geometry">
            <Array as="points">
              <mxPoint x="346" y="347" />
            </Array>
          </mxGeometry>
        </mxCell>
        <mxCell id="2yyvgfeFI3VEinEZ0zGj-16" value="" style="curved=1;startArrow=none;endArrow=block;exitX=0.5;exitY=1.01;entryX=0.5;entryY=0.01;rounded=0;" edge="1" parent="1" source="2yyvgfeFI3VEinEZ0zGj-4" target="2yyvgfeFI3VEinEZ0zGj-5">
          <mxGeometry relative="1" as="geometry">
            <Array as="points" />
          </mxGeometry>
        </mxCell>
        <mxCell id="2yyvgfeFI3VEinEZ0zGj-17" value="" style="curved=1;startArrow=none;endArrow=block;exitX=0.5;exitY=1.01;entryX=0.5;entryY=0.01;rounded=0;" edge="1" parent="1" source="2yyvgfeFI3VEinEZ0zGj-5" target="2yyvgfeFI3VEinEZ0zGj-6">
          <mxGeometry relative="1" as="geometry">
            <Array as="points" />
          </mxGeometry>
        </mxCell>
        <mxCell id="2yyvgfeFI3VEinEZ0zGj-18" value="" style="curved=1;startArrow=none;endArrow=block;exitX=0.5;exitY=1.01;entryX=0.5;entryY=0.01;rounded=0;" edge="1" parent="1" source="2yyvgfeFI3VEinEZ0zGj-6" target="2yyvgfeFI3VEinEZ0zGj-7">
          <mxGeometry relative="1" as="geometry">
            <Array as="points" />
          </mxGeometry>
        </mxCell>
        <mxCell id="2yyvgfeFI3VEinEZ0zGj-19" value="" style="curved=1;startArrow=none;endArrow=block;exitX=0.5;exitY=1.01;entryX=0.5;entryY=0;rounded=0;" edge="1" parent="1" source="2yyvgfeFI3VEinEZ0zGj-7" target="2yyvgfeFI3VEinEZ0zGj-8">
          <mxGeometry relative="1" as="geometry">
            <Array as="points" />
          </mxGeometry>
        </mxCell>
        <mxCell id="2yyvgfeFI3VEinEZ0zGj-20" value="Não" style="curved=1;startArrow=none;endArrow=block;exitX=0.17;exitY=1;entryX=0.5;entryY=0;rounded=0;" edge="1" parent="1" source="2yyvgfeFI3VEinEZ0zGj-8" target="2yyvgfeFI3VEinEZ0zGj-9">
          <mxGeometry relative="1" as="geometry">
            <Array as="points">
              <mxPoint x="232" y="1078" />
            </Array>
          </mxGeometry>
        </mxCell>
        <mxCell id="2yyvgfeFI3VEinEZ0zGj-21" value="Sim" style="curved=1;startArrow=none;endArrow=block;exitX=0.83;exitY=1;entryX=0.5;entryY=0;rounded=0;" edge="1" parent="1" source="2yyvgfeFI3VEinEZ0zGj-8" target="2yyvgfeFI3VEinEZ0zGj-10">
          <mxGeometry relative="1" as="geometry">
            <Array as="points">
              <mxPoint x="461" y="1078" />
            </Array>
          </mxGeometry>
        </mxCell>
        <mxCell id="2yyvgfeFI3VEinEZ0zGj-22" value="" style="curved=1;startArrow=none;endArrow=block;exitX=0.5;exitY=1;entryX=0.5;entryY=0;rounded=0;" edge="1" parent="1" source="2yyvgfeFI3VEinEZ0zGj-10" target="2yyvgfeFI3VEinEZ0zGj-11">
          <mxGeometry relative="1" as="geometry">
            <Array as="points" />
          </mxGeometry>
        </mxCell>
        <mxCell id="2yyvgfeFI3VEinEZ0zGj-23" value="" style="curved=1;startArrow=none;endArrow=block;exitX=0.5;exitY=1;entryX=0.49;entryY=0;rounded=0;" edge="1" parent="1" source="2yyvgfeFI3VEinEZ0zGj-11" target="2yyvgfeFI3VEinEZ0zGj-12">
          <mxGeometry relative="1" as="geometry">
            <Array as="points" />
          </mxGeometry>
        </mxCell>
      </root>
    </mxGraphModel>
  </diagram>
</mxfile>
